<svg xmlns="http://www.w3.org/2000/svg" viewBox="0 0 14 30"><defs><style>.cls-1{fill:#3d58a6;}</style></defs><title>fb</title><g id="Layer_2" data-name="Layer 2"><g id="Layer_1-2" data-name="Layer 1"><g id="_020201ff" data-name="#020201ff"><path class="cls-1" d="M4.61,1.55A6.58,6.58,0,0,1,9,0c1.66,0,3.32,0,5,0V5.26H10.78A1.47,1.47,0,0,0,9.28,6.4c0,1.18,0,2.35,0,3.52H14c-.11,1.7-.33,3.39-.57,5.07H9.25c0,5,0,10,0,15H3c0-5,0-10,0-15-1,0-2,0-3,0V9.94H3c0-1.64,0-3.27,0-4.91A5.29,5.29,0,0,1,4.61,1.55Z"/></g></g></g></svg>