<svg xmlns="http://www.w3.org/2000/svg" viewBox="0 0 100.18 30.57"><defs><style>.cls-1{fill:#ee4036;}</style></defs><title>logo</title><g id="Layer_2" data-name="Layer 2"><g id="Layer_1-2" data-name="Layer 1"><path class="cls-1" d="M7.44,24.77a1.17,1.17,0,0,1-.51-.21L1.12,19a3.38,3.38,0,0,1-.61-.62,2,2,0,0,1-.36-.51A1.4,1.4,0,0,1,0,17.17v-.81a1.47,1.47,0,0,1,.15-.67c.16-.2.26-.4.36-.5l.61-.62L6.88,8.82a.8.8,0,0,1,.51-.16.64.64,0,0,1,.51.21.89.89,0,0,1,.2.51v1.17c0,.1,0,.15,0,.2A.45.45,0,0,1,8,11a.62.62,0,0,1-.1.15c0,.05,0,.1-.16.2l-.15.16a.6.6,0,0,0-.2.2c-.1.1-.21.15-.21.2L2.65,16.51c-.1.1-.2.2-.2.31a.36.36,0,0,0,.2.3l4.48,4.43a.61.61,0,0,0,.21.16c.1.1.15.15.2.15l.15.15.16.16c.05,0,.05.1.1.15s0,.15.1.2,0,.16,0,.21V24a.66.66,0,0,1-.2.51A.56.56,0,0,1,7.44,24.77Z"/><path class="cls-1" d="M13,30.57c-.1,0-.2-.15-.2-.4V30L17.53.61c.1-.41.2-.61.36-.61h2.75c.15,0,.2.15.2.41V.56L16.15,30c-.1.41-.2.61-.35.61Z"/><path class="cls-1" d="M25.27,27.16a.49.49,0,0,1-.4-.15c-.1-.1-.1-.31-.1-.61V4.23a1.29,1.29,0,0,1,.1-.61.49.49,0,0,1,.4-.15h2.91a.53.53,0,0,1,.41.15c.1.1.1.3.1.61V13a.39.39,0,0,0,0,.26c.05.1.1.1.15.1h6c.06,0,.11,0,.16-.1a.52.52,0,0,0,.1-.26V4.23a.88.88,0,0,1,.15-.61.51.51,0,0,1,.41-.15h3a.39.39,0,0,1,.35.15c.1.1.1.3.1.61V26.4A1.32,1.32,0,0,1,39,27a.45.45,0,0,1-.35.15h-3a.37.37,0,0,1-.25-.05l-.21-.2a1.35,1.35,0,0,1-.1-.51V16.31c0-.26,0-.36-.2-.36h-6c-.15,0-.2.1-.2.36V26.4a.9.9,0,0,1-.15.61.53.53,0,0,1-.41.15Z"/><path class="cls-1" d="M46.47,27.16a.39.39,0,0,1-.35-.15A.84.84,0,0,1,46,26.4V6.52c0-.25-.05-.41-.2-.41H42q-.08,0-.15-.15a1,1,0,0,1-.06-.46V4.18a1,1,0,0,1,.11-.56.49.49,0,0,1,.4-.15H53.56a.39.39,0,0,1,.35.15c.1.1.1.3.1.56V5.5a1,1,0,0,1-.1.51.66.66,0,0,1-.41.1H50.09c-.15,0-.2.16-.2.41V26.4a1,1,0,0,1-.16.66.49.49,0,0,1-.4.15H46.47Z"/><path class="cls-1" d="M56.92,27.16c-.31,0-.46-.25-.46-.82v-.1l.92-21.91c0-.61.2-.92.51-.92h3.16a.91.91,0,0,1,.51.16.86.86,0,0,1,.3.61l3.36,15.59c0,.05.06.1.06.1h.1c.05,0,.05-.05.05-.1L68.79,4.28c.1-.51.36-.81.77-.81h3.21c.3,0,.46.35.46.91l.91,21.91v.11c0,.51-.15.81-.51.81H71.44c-.3,0-.51-.3-.51-.87l-.61-17c0-.06,0-.11,0-.11s0,0-.1,0L66.55,26.4c-.1.51-.36.81-.66.81H64.61c-.3,0-.56-.25-.66-.81l-3.52-17c0-.05,0-.11-.1-.05v.1l-.66,16.86c0,.62-.15.87-.46.87Z"/><path class="cls-1" d="M78.93,27.16a.39.39,0,0,1-.35-.15c-.11-.1-.11-.31-.11-.61V4.23a1.13,1.13,0,0,1,.11-.61.45.45,0,0,1,.35-.15h3a.39.39,0,0,1,.35.15c.11.1.11.3.11.61v20c0,.26.1.36.25.36h5.2a.64.64,0,0,1,.36.1c.1.11.1.26.1.51V26.5a1.39,1.39,0,0,1-.1.56.45.45,0,0,1-.36.1Z"/><path class="cls-1" d="M92.84,24.77a.52.52,0,0,1-.46-.21.89.89,0,0,1-.2-.51V22.93a.3.3,0,0,1,0-.2c0-.05,0-.11,0-.16a.18.18,0,0,0,0-.15c0-.05,0-.1.11-.15s.1-.1.1-.15,0-.06.1-.16l.15-.15s.1,0,.16-.15.15-.11.15-.16l4.48-4.58a.47.47,0,0,0,.16-.31c0-.1-.06-.2-.21-.3L93.1,11.87a1.22,1.22,0,0,0-.26-.2c-.1-.1-.2-.15-.2-.2l-.15-.16c-.11-.1-.16-.15-.16-.2s0-.1-.1-.21,0-.15-.1-.25V9.27a.68.68,0,0,1,.66-.71.81.81,0,0,1,.51.2l5.81,5.66.61.61a1.82,1.82,0,0,1,.31.46,1.58,1.58,0,0,1,.15.66v1.07c0,.05-.05.16-.05.21a.38.38,0,0,0,0,.2c0,.05,0,.1-.1.2a.58.58,0,0,1-.1.16,1.17,1.17,0,0,1-.16.2l-.15.15-.2.21c-.11.1-.21.15-.21.2L93.4,24.51A.88.88,0,0,1,92.84,24.77Z"/></g></g></svg>