<svg xmlns="http://www.w3.org/2000/svg" viewBox="0 0 24.81 30"><defs><style>.cls-1{fill:#3d58a6;}</style></defs><title>youtube</title><g id="Layer_2" data-name="Layer 2"><g id="Layer_1-2" data-name="Layer 1"><path class="cls-1" d="M15.81,24.36V20.82c0-.75-.22-1.13-.65-1.13a1.06,1.06,0,0,0-.75.36v5.06a1.06,1.06,0,0,0,.75.36c.43,0,.65-.37.65-1.11ZM20,21.61h1.49v-.77c0-.76-.25-1.15-.74-1.15s-.75.39-.75,1.15Zm-12.88-6v1.58H5.28v9.54H3.61V17.19H1.85V15.61Zm4.54,2.84v8.28H10.11v-.9a2.42,2.42,0,0,1-1.72,1,.89.89,0,0,1-1-.63A3.9,3.9,0,0,1,7.31,25V18.45H8.8v6.09a3.08,3.08,0,0,0,0,.59.32.32,0,0,0,.34.34c.3,0,.61-.24.95-.7V18.45ZM17.3,21v3.3a5.61,5.61,0,0,1-.16,1.64,1.15,1.15,0,0,1-1.19.95,2.07,2.07,0,0,1-1.54-.92v.81H12.9V15.61h1.51v3.63a2,2,0,0,1,1.54-.9,1.15,1.15,0,0,1,1.19.95A5.73,5.73,0,0,1,17.3,21ZM23,23.86v.21a7.83,7.83,0,0,1,0,1,2.19,2.19,0,0,1-.34.9,2,2,0,0,1-1.81.9A2.13,2.13,0,0,1,19,26a3.11,3.11,0,0,1-.48-1.93V21.14a3.28,3.28,0,0,1,.45-1.94,2.14,2.14,0,0,1,1.81-.86,2,2,0,0,1,1.76.86A3.26,3.26,0,0,1,23,21.14v1.71H20v1.47c0,.76.26,1.15.77,1.15a.66.66,0,0,0,.68-.59,1.36,1.36,0,0,1,0-.16c0-.09,0-.21,0-.37v-.49ZM12.79,5.28V8.8c0,.76-.24,1.15-.72,1.15s-.72-.39-.72-1.15V5.28q0-1.17.72-1.17T12.79,5.28Zm12,16.08a28.42,28.42,0,0,0-.43-5.86,3.15,3.15,0,0,0-2.68-2.44,91.33,91.33,0,0,0-9.29-.34,90.88,90.88,0,0,0-9.27.34,3,3,0,0,0-1.73.78,3.07,3.07,0,0,0-1,1.66A28.2,28.2,0,0,0,0,21.36a27.79,27.79,0,0,0,.45,5.87,3.16,3.16,0,0,0,1,1.64,3,3,0,0,0,1.7.79,91.82,91.82,0,0,0,9.3.34,91.73,91.73,0,0,0,9.29-.34,2.92,2.92,0,0,0,1.7-.79,3.16,3.16,0,0,0,1-1.64A27.79,27.79,0,0,0,24.81,21.36ZM7.78,6.68,9.81,0H8.12L7,4.4,5.77,0H4l.54,1.56.52,1.55a30.68,30.68,0,0,1,1,3.57v4.53H7.78V6.68ZM14.3,8.5V5.57a3.39,3.39,0,0,0-.47-2,2.12,2.12,0,0,0-1.76-.86,2,2,0,0,0-1.76.86,3.31,3.31,0,0,0-.48,2V8.5a3.33,3.33,0,0,0,.48,2,2,2,0,0,0,1.76.85,2.11,2.11,0,0,0,1.76-.85A3.28,3.28,0,0,0,14.3,8.5Zm4.08,2.71h1.51V2.86H18.38V9.25c-.33.46-.64.7-.94.7a.33.33,0,0,1-.36-.36,2.63,2.63,0,0,1,0-.59V2.86H15.54V9.47a4.16,4.16,0,0,0,.14,1.24.94.94,0,0,0,1,.61,2.51,2.51,0,0,0,1.73-1v.9Z"/></g></g></svg>